<?xml version="1.0" standalone="no"?>
<!DOCTYPE svg PUBLIC "-//W3C//DTD SVG 1.1//EN" "http://www.w3.org/Graphics/SVG/1.1/DTD/svg11.dtd">
<svg xmlns="http://www.w3.org/2000/svg">
<metadata>Copyright (C) 2015 by original authors @ fontello.com</metadata>
<defs>
<font id="fontello" horiz-adv-x="1000" >
<font-face font-family="fontello" font-weight="400" font-stretch="normal" units-per-em="1000" ascent="850" descent="-150" />
<missing-glyph horiz-adv-x="1000" />
<glyph glyph-name="autonomo" unicode="&#xe800;" d="m881-78c0 0-26 36-37 55 0 0-51 88-260 97-21 0-31 14-31 35h0c0 17 0 30 0 30 0 4 0 7 1 11 24 11 51 26 82 50 0 0 78 49 78 101 0 0 32 168 32 228 0 150-67 292-292 292-227 0-292-142-292-292 0-62 33-228 33-228 0-53 78-101 78-101 31-22 59-38 82-49 0-4 1-8 1-12 0 0 0-13 0-30h0c0-21-11-35-31-35-206-8-260-97-260-97-12-19-37-55-37-55l49-43c0 0 31 45 43 63 0 0 46 61 207 67 0 0 0 0 0 0 53 0 94 42 94 100l1 30c0 5 0-4 0 0v33l-33 32c-23 11-54 31-79 49l-3 2c-21 13-45 37-47 47l-2 12c-12 62-31 175-31 215 0 155 72 227 227 227 153 0 228-75 228-227 0-39-20-153-32-215l-1-13c-2-9-29-34-48-46l-4-3c-24-19-54-37-78-48l-32-32v-33c-1-5 0 4 0 0l1-30c0-58 40-100 96-100 160-7 205-67 205-67 8-13 17-26 26-39 5-7 17-24 17-24l49 43z" horiz-adv-x="909" />
<glyph glyph-name="uau" unicode="&#xe801;" d="m781 623l-163 0-98-449c-23-106-80-178-194-178-106 0-161 64-162 140 0 16 2 31 5 38l97 449-161 0-99-453c-3-12-6-37-6-52 0-157 111-264 326-264 221 0 316 133 355 316l100 453z m196-459l206 358 51-358-257 0z m126 535l-499-831 209 0 81 141 354 0 21-141 190 0-136 831-220 0z m1108 75l-117-539c-28-127-96-214-233-214-127 0-193 78-194 169 0 19 2 37 5 45l117 539-194 0-118-543c-3-15-7-45-7-63 0-189 133-317 391-317 266 0 379 159 426 380l120 543-196 0z m233-684c-70 0-130-59-130-130 0-60 48-110 108-110 70 0 130 59 130 130 0 60-48 110-108 110m68 760l-115-661 165 0 174 661-224 0z" horiz-adv-x="2736" />
<glyph glyph-name="user" unicode="&#xe802;" d="m500-150c-276 0-500 224-500 500s224 500 500 500 500-224 500-500-224-500-500-500z m277 143c-4 5-8 12-12 18-7 9-13 18-19 28-1 0-33 44-151 49-41 0-70 31-70 73l-1 22c0 4-1-3 0 0v24l24 24c17 8 39 22 57 35l3 2c14 9 33 27 35 34l1 10c9 45 23 129 23 157 0 112-55 167-167 167-114 0-167-53-167-167 0-29 14-112 23-157l1-9c2-7 19-25 35-35l2-1c19-13 41-28 58-36l24-24v-24c1-3 0 4 0 0l-1-22c0-42-29-73-68-73 0 0 0 0 0 0-118-5-152-49-153-49-6-10-12-19-19-28-3-6-8-13-12-18 77-60 173-95 277-95s200 35 277 95z m-277 809c-250 0-452-202-452-452 0-128 53-244 139-326 9 13 19 27 27 40 0 0 40 66 191 72 15 0 23 10 23 25h0c0 13 0 22 0 22 0 3-1 6-1 9-17 8-37 20-60 36 0 0-57 35-57 74 0 0-24 122-24 167 0 111 47 214 214 214 165 0 214-103 214-214 0-44-23-167-23-167 0-38-58-74-58-74-22-17-42-29-60-37 0-3-1-5-1-8 0 0 0-9 0-22h0c0-15 8-25 23-25 153-7 191-72 191-72 8-13 18-27 27-40 86 82 139 198 139 326 0 250-202 452-452 452z" horiz-adv-x="1000" />
<glyph glyph-name="estoque" unicode="&#xe803;" d="m498 850l-498-228 1 0 0-543 472-228 0-1 1 1 1 0 0 0 509 233 0 543-3 0 1 1-484 222z m-114-96l114 52 392-179-105-50-401 177z m-292-132l157 70 392-184-143-69-406 183z m717-312l0 235 131 64 0-500-415-196 0 491 153 75 0-240 131 71z m-765-206l0 500 437-200 0-508-437 208z" horiz-adv-x="983" />
<glyph glyph-name="envio-docs" unicode="&#xe804;" d="m732 662l-343 0 0-49 343 0 0 49z m0-171l-343 0 0-49 343 0 0 49z m0-163l-343 0 0-49 343 0 0 49z m333-405c0-11-6-18-18-18l-973 0c-12 0-19 7-19 18l0 460c0 11 28 27 28 27 0 0 62 37 143 82l0-217c-71 40-125 71-125 71l0-55c0 0 432-248 459-248 28 0 460 248 460 248l0 55c0 0-54-31-125-71l0 216c82-46 146-83 146-83 0 0 24-14 24-25l0-460z m-774 878l539 0c10 0 16-6 16-16l0-537c-123-70-270-150-286-150-16 0-162 80-285 149l0 538c0 10 6 16 16 16m793-354c-4 3-88 52-189 108l0 262c0 21-12 33-33 33l-604 0c-20 0-32-12-32-33l0-262c-98-54-181-102-189-108-20-13-37-37-37-55l0-505c0-23 14-37 37-37l1047 0c23 0 37 14 37 37l0 505c0 15-24 49-37 55" horiz-adv-x="1121" />
<glyph glyph-name="nfentrada" unicode="&#xe805;" d="m170 220l379 0 0 63-379 0 0-63z m0 189l379 0 0 63-379 0 0-63z m0 190l379 0 0 63-379 0 0-63z m674-664c0-13-8-21-21-21l-537 0c-13 0-21 8-21 21l0 53 410 0c26 0 42 16 42 42l0 600 106 0c13 0 21-8 21-21l0-674z m-779 137l0 695c0 13 8 21 21 21l547 0c13 0 21-8 21-21l0-695c0-13-8-21-21-21l-547 0c-13 0-21 8-21 21m800 632l-148 0 0 105c0 26-15 42-42 42l-631 0c-27 0-43-16-43-42l0-779c0-26 16-42 43-42l147 0 0-95c0-26 16-42 42-42l632 0c26 0 42 16 42 42l0 769c0 26-16 42-42 42" horiz-adv-x="910" />
<glyph glyph-name="checked" unicode="&#xe806;" d="m1150 760c-56 58-148 58-205 0l-513-522-128 131c-56 58-148 58-205 0-57-58-57-151 0-209l231-235c56-57 148-57 205 0l615 627c57 57 57 151 0 208z" horiz-adv-x="1250" />
<glyph glyph-name="cashbox" unicode="&#xe807;" d="m426 363l53 0 0-54-53 0 0 54z m107 0l54 0 0-54-54 0 0 54z m107 0l54 0 0-54-54 0 0 54z m-214-109l53 0 0-54-53 0 0 54z m107 0l54 0 0-54-54 0 0 54z m107 0l54 0 0-54-54 0 0 54z m67-202c19 0 35-16 35-35 0-20-16-35-35-35-19 0-34 15-34 35 0 19 15 35 34 35m57 703l182 0 0-58-182 0 0 58z m-390-275c2 32 31 58 62 58l543 0c31 0 59-26 61-58l20-281 54 0-20 285c-5 60-56 109-115 109l-94 0 0 50 87 0c15 0 27 12 27 27l0 113c0 15-12 27-27 27l-235 0c-14 0-26-12-26-27l0-113c0-15 12-27 26-27l94 0 0-50-395 0c-59 0-111-49-115-109l-21-285 54 0 20 281z m368-5l232 0 0-55-232 0 0 55z m385-523c0-4-3-7-7-7l-825 0c-4 0-8 3-8 7l0 129c0 4 4 8 8 8l825 0c4 0 7-4 7-8l0-129z m-7 191l-825 0c-34 0-61-28-61-62l0-129c0-34 27-62 61-62l825 0c33 0 61 28 61 62l0 129c0 34-28 62-61 62" horiz-adv-x="1414" />
<glyph glyph-name="barcode" unicode="&#xe808;" d="m1433-149v999h97v-999h-97z m-133 999h63v-730h-63v730z m11-998h-39v172l-44-38v42l44 38h39v-214z m-145 998h66v-730h-66v730z m-200 0h131v-730h-131v730z m52-844c0-21-8-32-23-49l-60-70h83v-35h-131v35l80 93c8 9 11 16 11 26 0 16-9 27-25 27-13 0-27-7-27-27h-39c0 39 29 62 66 62 38 0 65-24 65-62z m-219 844h98v-730h-98v730z m53-843c0-24-11-37-25-44 16-8 28-23 28-49 0-43-31-64-68-64-35 0-68 18-69 63h39c1-19 14-28 30-28 17 0 29 11 29 30 0 18-11 30-30 30h-6v34h6c19 0 27 11 27 27 0 18-12 27-27 27-14 0-25-10-26-26h-39c1 38 29 61 65 61 38 0 66-25 66-61z m-271-155l70 179h-57v-34h-37v69h137v-35l-70-179h-43z m-115 998h231v-730h-231v730z m-12-872c5 2 11 2 16 2 29 0 56-23 56-63 0-42-28-67-66-67-38 0-67 24-67 66 0 20 8 38 18 58l45 92h43l-45-88z m-22-61c0-20 12-32 28-32 16 0 27 12 27 32 0 19-11 31-27 31-16 0-28-12-28-31z m-98 933h64v-730h-64v730z m28-846v-90c0-41-31-64-66-64-35 0-65 23-65 64v90c0 41 30 64 65 64 35 0 66-23 66-64z m-40 0c0 18-10 29-26 29-15 0-26-11-26-29v-90c0-18 11-29 26-29 16 0 26 11 26 29v90z m-122 846h65v-730h-65v730z m-200 0h133v-999h-133v999z m1185-819l-70-179h-42l69 179h-57v-34h-37v69h137v-35z" horiz-adv-x="1530" />
<glyph glyph-name="banck" unicode="&#xe809;" d="m1113-150h-1088c-14 0-25 11-25 25s11 24 25 24h1088c14 0 25-11 25-24s-11-25-25-25z m-742 247c14 0 25-11 25-24 0-14-11-25-25-25h-198c-13 0-25 11-25 25 0 13 12 24 25 24h25v322h-25c-13 0-25 11-25 25 0 13 12 24 25 24h198c14 0 25-11 25-24 0-14-11-25-25-25h-25v-322h25z m-74 322h-50v-322h50v322z m371-322c13 0 24-11 24-24 0-14-11-25-24-25h-198c-14 0-25 11-25 25 0 13 11 24 25 24h25v322h-25c-14 0-25 11-25 25 0 13 11 24 25 24h198c13 0 24-11 24-24 0-14-11-25-24-25h-25v-322h25z m-74 322h-50v-322h50v322z m469-445c0-14-11-25-24-25h-940c-14 0-25 11-25 25 0 13 11 24 25 24h940c13 0 24-11 24-24z m-98 123c13 0 24-11 24-24 0-14-11-25-24-25h-198c-14 0-25 11-25 25 0 13 11 24 25 24h24v322h-24c-14 0-25 11-25 25 0 13 11 24 25 24h198c13 0 24-11 24-24 0-14-11-25-24-25h-25v-322h25z m-75 322h-49v-322h49v322z m-840 148l519 283 519-283v-49h-1038v49z m928 0l-409 212-411-212h820z" horiz-adv-x="1138" />
<glyph glyph-name="factory" unicode="&#xe80a;" d="m870-150h-840c-16 0-30 14-30 30v364c0 3 0 5 1 7l29 580c1 11 10 19 20 19h106c11 0 19-8 20-19l28-556h36l29 556c0 11 9 19 19 19h106c11 0 20-8 20-19l28-550c205 163 210 163 219 163 11 0 20-9 20-20v-128c186 148 191 148 199 148 11 0 20-9 20-20v-544c0-16-13-30-30-30z m-830 40h820v495c-44-33-130-101-187-146-6-5-14-6-21-3-7 4-11 11-11 19v130c-44-33-130-101-188-146-3-3-7-5-12-5h-17c-11 0-20 9-20 20l-29 556h-68l-28-556c-1-11-9-20-20-20h-74c-10 0-19 9-19 20l-29 556h-68l-29-563c0-2 0-3 0-4v-353z m545 116h-83c-17 0-31 15-31 32v84c0 17 14 31 31 31h83c17 0 31-14 31-31v-84c0-17-14-32-31-32z m-74 41h65v66h-65v-66z m280-41h-83c-17 0-31 15-31 32v84c0 17 14 31 31 31h83c17 0 30-14 30-31v-84c0-17-13-32-30-32z m-74 41h65v66h-65v-66z" horiz-adv-x="900" />
<glyph glyph-name="facebook" unicode="&#xe80b;" d="m945 850h-890c-30 0-55-25-55-55v-890c0-30 25-55 55-55h479v387h-130v151h130v112c0 129 79 199 194 199 55 0 103-4 117-6v-135l-80 0c-63 0-75-30-75-73v-97h149l-19-150h-130v-388h255c30 0 55 25 55 55v890c0 30-25 55-55 55l0 0z m0 0" horiz-adv-x="1000" />
<glyph glyph-name="iphone" unicode="&#xe80c;" d="m852 850h-290c-50 0-91-41-91-91v-818c0-50 41-91 91-91h290c50 0 91 41 91 91v818c0 50-41 91-91 91z m-145-28c8 0 14-6 14-14 0-7-6-14-14-14-8 0-14 7-14 14 0 8 6 14 14 14z m-42-55h84c7 0 14-7 14-14 0-8-7-14-14-14h-84c-7 0-13 6-13 14 0 7 6 14 13 14z m42-889c-23 0-42 18-42 41s19 42 42 42 42-19 42-42-19-41-42-41z m209 111h-417v722h417l0-722 0 0z m-281 378c22-9 33-31 33-31 29 72 136 83 136 83-14-4-24-43-24-43-2-16-16-45-16-45-34-56-81-50-81-50-83 0-73 108-73 108 1-8 25-22 25-22z m-11-22c0 0 42-37 46-54 0 0 43 79 102 99 0 0-71-18-102-83 0 0-20 28-46 38z" horiz-adv-x="1414" />
<glyph glyph-name="lock" unicode="&#xe80d;" d="m444 234c-20 0-36-16-36-36v-146c0-20 16-36 36-36 20 0 36 16 36 36v146c0 20-16 36-36 36z m360 257h-83v82c0 161-118 277-277 277-159 0-278-116-278-277v-82h-83c-46 0-83-37-83-83v-472c0-46 37-83 83-83h721c46 0 84 37 84 83v472c0 46-38 83-84 83z m-582 82c0 120 102 222 222 222s222-102 222-222v-82h-444v82z m610-622c0-24-19-43-42-43h-692c-24 0-42 19-42 43v442c0 24 18 43 42 43h692c23 0 42-19 42-43v-442z" horiz-adv-x="887" />
<glyph glyph-name="logo_contaazul" unicode="&#xe80e;" d="m196 470c164-61 254-226 254-226 218 521 1048 605 1048 605-110-30-185-313-185-313-20-117-127-322-127-322-264-408-626-363-626-363-637-1-557 780-557 780 3-62 193-161 193-161m-84-154c0 0 324-270 347-392 0 0 336 567 787 714 0 0-547-130-786-598 0 0-150 204-348 276m2319-115c-9-110-51-197-124-260-76-61-175-90-298-90-144 0-253 43-329 129-76 83-113 205-113 367 0 165 38 290 115 373 80 86 194 130 342 130 122 0 218-31 291-91 68-59 106-141 115-248l-118 0c-44 0-76 20-94 58-12 24-28 45-46 63-36 28-86 42-146 42-85 0-150-27-196-82-45-56-66-136-66-243 0-103 21-182 66-238 42-56 105-86 190-86 59 0 108 15 146 44 35 28 60 72 75 133l190-1z m161-262c-38 33-67 78-82 134-17 57-25 114-25 176 0 49 6 99 20 149 14 50 35 91 65 125 47 55 110 88 184 97 76 10 144 5 204-18 71-27 122-76 154-144 32-61 47-131 47-213 0-59-7-110-19-152-13-42-30-78-50-107-44-62-101-99-169-114-61-17-122-18-184-4-59 14-108 37-145 71m133 485c-39-42-57-105-52-189 3-84 19-142 46-176 12-14 31-27 58-37 27-10 55-11 84-2 28 8 54 29 76 62 21 33 34 86 36 160 0 65-10 115-32 149-21 33-45 55-73 64-28 9-55 10-83 1-27-8-48-18-60-32m1135-552l-97 0c-27 0-49 9-68 26-16 17-26 40-26 68l0 375c0 44-13 76-39 97-27 20-57 30-90 30-33 0-62-10-88-30-26-21-39-53-39-97l0-469-193 0 0 431c0 124 32 208 97 251 66 42 137 66 216 69 81 0 156-21 224-63 68-42 102-128 102-257l0-431 1 0z m384 0c-61-3-127-2-197 2-71 6-106 51-106 135l0 813 99 0c24 0 46-9 64-28 18-18 27-40 27-65l0-125 113 0 0-38c0-28-9-50-27-68-18-17-41-26-66-26l-19 0 0-409c0-32 18-47 56-47l57 0 0-144-1 0z m515 30c-39-20-80-32-123-37-43-5-81-7-114-7-66 0-125 18-175 55-50 36-74 95-74 178 0 77 22 132 67 165 46 33 104 56 173 66 9 0 20 1 33 4 12 3 27 5 44 7 80 11 121 35 121 71 0 28-15 46-43 55-28 8-54 12-78 12-26 0-49-3-69-11-21-7-35-22-45-42l-184 0c7 57 33 104 77 141 50 42 120 63 213 63 103 0 180-17 232-52 53-36 81-88 81-154l0-252c0-73-14-131-40-172-28-41-60-71-96-90m-45 340c-26-12-61-24-107-36l-64-13c-33-9-56-22-71-37-13-20-19-40-19-61 0-27 8-50 25-66 17-14 40-21 71-21 51 0 92 15 121 44 30 30 44 70 44 121l0 69z m644 580l154 0 345-950-206 0-63 196-371 0-61-196-206 0 315 886c16 43 47 64 93 64m44-191l-133-402 266 0-133 402z m529-759l0 146 394 437-279 0c-26 0-47 9-65 26-18 17-27 38-27 64l0 61 601 0 0-157-390-417 404 0 0-160-638 0z m1337 735l0-431c0-130-34-216-102-257-68-41-143-61-223-61-80 3-152 26-217 66-65 40-98 124-98 251l0 431 193 0 0-468c0-44 13-76 39-96 26-21 55-31 88-31 33 0 64 10 90 31 27 20 39 52 39 96l0 375c0 26 10 48 27 66 17 18 39 27 68 27l96 0 0 1z m66 215l100 0c26 0 47-9 65-26 18-17 28-39 28-64l0-859-194 0 0 949 1 0z" horiz-adv-x="7526" />
<glyph glyph-name="mac" unicode="&#xe80f;" d="m632 650c-11 0-20-8-20-19v-263c0-10 9-18 20-18 11 0 21 8 21 18v264c0 10-10 18-21 18z m-122-147c-12 0-21-9-21-19v-116c0-10 9-18 21-18 11 0 20 8 20 18v116c0 10-9 19-20 19z m245 92c-12 0-21-9-21-19v-208c0-10 9-18 21-18 11 0 20 8 20 18v208c0 10-9 19-20 19z m-360-21c-11 0-20-8-20-18v-188c0-10 9-18 20-18 12 0 21 8 21 18v188c0 10-9 18-21 18z m655 276h-950c-55 0-100-45-100-100v-575c0-55 45-100 100-100h345c-15-83-64-139-110-175h-60c-14 0-25-11-25-25 0-14 11-25 25-25h600c14 0 25 11 25 25 0 14-11 25-25 25h-60c-46 36-95 92-110 175h345c55 0 100 45 100 100v575c0 55-45 100-100 100z m-310-950h-330c40 42 75 99 86 175h158c11-76 46-133 86-175z m360 275c0-28-22-50-50-50h-350-250-350c-28 0-50 22-50 50v50c0 0 0 0 0 0h1050v-50z m0 100h-1050c0 0 0 0 0 0v475c0 28 22 50 50 50h950c28 0 50-22 50-50v-475z" horiz-adv-x="1150" />
<glyph glyph-name="mail" unicode="&#xe810;" d="m1350 17c0-30-8-57-22-81l-426 472 422 364c16-26 26-56 26-89v-666z m-675 305l587 507c-24 13-51 21-81 21h-1012c-29 0-57-8-81-21l587-507z m164 31l-136-118c-8-7-18-10-28-10-10 0-20 4-28 10l-136 118-431-477c26-16 56-26 89-26h1012c33 0 63 10 89 26l-431 477z m-813 419c-16-26-26-56-26-89v-666c0-30 8-57 22-80l426 471-422 364z m0 0" horiz-adv-x="1350" />
<glyph glyph-name="money" unicode="&#xe811;" d="m500-69c-231 0-418 188-418 419 0 231 187 419 418 419 231 0 419-188 419-419 0-231-188-419-419-419m0 885c-257 0-466-209-466-466 0-257 209-466 466-466 257 0 466 209 466 466 0 257-209 466-466 466m24-252l0 47c0 13-11 23-24 23-13 0-24-10-24-23l0-47c-54-10-96-51-101-104-5-49 23-113 120-133 66-14 86-51 83-82-3-32-31-64-78-64-55 0-85 29-93 54-4 13-17 19-30 15-12-4-19-17-15-30 12-35 49-76 114-84l0-47c0-13 11-23 24-23 13 0 24 10 24 23l0 47c54 10 96 51 101 104 5 49-23 113-120 133-66 14-86 52-83 82 3 32 31 64 78 64 55 0 85-29 93-54 4-13 17-19 30-15 12 4 19 18 15 30-12 36-49 76-114 84" horiz-adv-x="1000" />
<glyph glyph-name="perfis" unicode="&#xe812;" d="m700-44c-21 43-89 88-150 121 30 13 61 26 72 29 29 8 34 56 35 83 0 6-2 11-7 14-7 5-13 12-20 23-2 3-4 7-6 10-8 12-14 22-20 37-2 7-7 11-13 11-1 0-2 1-3 2-9 18-14 42-13 52 4 0 8 2 11 5 3 3 5 7 5 11-2 49 11 88 39 112 4 4 6 10 5 15 7 3 17 4 20 4l1 15 13 9c0 0 0-1 0-1 0 0 0 0 1 1 5-4 12-7 19-9 22-6 39-12 49-17 45-18 70-65 68-129-1-4 2-8 5-11 2-3 6-4 9-5 0-10-4-34-14-52 0-1-2-2-2-2-5-1-10-5-12-11-6-15-12-25-20-37-2-3-4-7-7-11-6-10-12-17-18-22-4-3-6-7-6-12 0-27 5-74 32-85l15-6c19-7 34-13 57-26-39-49-89-89-145-118m-535 106c36 17 70 30 85 34 32 10 39 66 40 99 0 5-3 10-7 13-9 6-17 15-25 29-3 4-6 8-8 12-9 15-17 28-24 46-2 6-8 10-14 11-1 0-4 1-5 4-13 25-18 58-17 68 1 0 2 0 3 0 4 0 9 2 12 5 3 3 4 7 4 11-3 77 25 118 49 138 5 5 7 12 5 18 10 6 27 6 27 6l1 15 14 9c-1 1 0 4 2 7 7-6 17-10 26-12 27-8 47-16 59-21 57-23 87-81 84-160 0-4 2-8 5-11 3-3 7-5 11-5 1 0 1 0 2 0 1-10-4-44-17-68-1-3-4-4-5-5-6 0-11-4-13-10-6-18-14-31-24-46-2-4-5-8-8-13-8-13-15-22-23-27-4-3-6-8-6-13 0-31 5-86 37-99 85-35 214-106 237-155-53-22-111-34-172-34-134 0-254 60-335 154m335 730c244 0 442-198 442-442 0-93-29-179-78-251-27 16-44 23-64 31l-15 6c-4 1-11 17-12 48 6 6 13 14 19 25 2 3 5 7 7 10 6 11 13 22 20 37 6 3 12 8 15 15 12 22 22 62 16 80-3 7-7 12-13 15-1 71-33 125-87 146-11 5-28 12-53 19-7 2-11 5-13 6-1 4-3 7-6 9-4 3-8 3-12 3-13-3-22-18-25-26-1-3-2-6-2-8-16-3-36-11-42-33 0-1-1-3-1-5-19-22-36-57-37-110-7-4-11-9-14-15-6-18 3-58 16-81 3-7 10-13 16-16 6-14 13-25 20-36 2-3 4-6 6-10 7-11 14-20 22-27-2-26-8-44-12-46-15-4-63-23-99-41-38 19-67 31-67 31-8 3-16 28-17 63 8 8 16 18 24 31 3 4 5 8 8 12 8 14 17 27 24 45 8 4 15 10 19 18 14 26 25 74 18 95-2 7-8 13-15 16 0 86-39 151-103 177-13 6-35 14-64 22-11 3-17 8-18 9-1 4-3 8-7 10-3 3-7 3-12 3-12-3-23-19-27-30-2-4-3-7-3-11-19-3-43-12-50-37-1-3-1-5-1-7-23-27-45-69-46-135-10-4-15-13-16-17-8-21 3-68 18-95 5-8 12-15 20-18 7-18 16-32 24-44 3-4 5-8 8-12 8-15 17-25 27-33-2-36-11-59-17-61-20-6-58-21-96-40-55 74-87 165-87 263 0 244 198 442 442 442m0 32c-261 0-474-213-474-474 0-261 213-474 474-474 261 0 474 213 474 474 0 261-213 474-474 474" horiz-adv-x="1000" />
<glyph glyph-name="phone" unicode="&#xe813;" d="m500 850c-276 0-500-224-500-500 0-276 224-500 500-500 276 0 500 224 500 500 0 276-224 500-500 500l0 0z m264-729l-40-41c-7-7-28-11-29-11-126-1-248 49-338 138-90 90-140 212-138 339 0 1 4 21 12 28l40 40c14 15 42 21 62 15l8-3c20-7 41-28 46-48l20-74c6-20-2-49-16-64l-27-26c26-97 103-174 200-200l26 27c15 14 44 22 64 16l74-20c20-5 41-26 48-46l3-8c6-20 0-48-15-62l0 0z m0 0" horiz-adv-x="1000" />
<glyph glyph-name="sales" unicode="&#xe814;" d="m538 549c-26 0-48-21-48-47 0-26 22-47 48-47 26 0 47 21 47 47 0 26-21 47-47 47m551-629l-772 0c-7 0-12 5-12 10l65 672c0 7 5 12 12 12l642 0c7 0 12-5 12-14l65-668c0-7-5-12-12-12m-381 871c76 0 139-59 143-134l-286 0c4 75 67 134 143 134m372-189c0 30-25 55-56 55l-129 0c-5 99-87 177-187 177-100 0-182-78-187-177l-139 0c-31 0-56-25-56-53l-65-672c0-31 15-66 46-66l788 0c31 0 50 35 50 68l-65 668z m-194-53c-26 0-47-21-47-47 0-26 21-47 47-47 26 0 47 21 47 47 0 26-21 47-47 47" horiz-adv-x="1406" />
<glyph glyph-name="samsung" unicode="&#xe815;" d="m828 829h-242c-53 0-121-19-121-72v-775c0-54 68-97 121-97h242c54 0 121 43 121 97v775c0 53-67 72-121 72z m-12-24c7 0 12-5 12-12 0-7-5-12-12-12-7 0-12 5-12 12 0 7 5 12 12 12z m-157 0h97c6 0 12-5 12-12 0-7-6-12-12-12h-97c-7 0-12 5-12 12 0 7 5 12 12 12z m97-875c0-12-10-21-22-21h-54c-12 0-21 9-21 21v3h97v-3h0z m169 52h-436v775h436l0-775 0 0z m-280 390c18-8 28-28 28-28 25 63 119 74 119 74-12-4-21-38-21-38-2-14-14-39-14-39-30-50-71-44-71-44-72 0-63 94-63 94 0-7 22-19 22-19z m-10-19c0 0 37-33 39-47 0 0 38 68 90 86 0 0-62-16-90-72 0 0-17 24-39 33z" horiz-adv-x="1414" />
<glyph glyph-name="shop" unicode="&#xe816;" d="m1063 486c0 5-1 11-5 15l-147 174v120c0 7-4 13-9 17-3 9-11 16-21 16h-686c-12 0-22-10-22-22 0-3 1-6 2-9 0 0-1-1-1-2v-120l-147-174c-3-3-4-8-5-12-2-4-3-7-3-12 0-68 49-127 119-151v-414c0-22 18-40 40-40h718c22 0 40 18 40 40v411c75 21 129 82 129 154 0 3-1 6-2 9z m-845 298h649v-95h-649v95z m674-868h-711v400c9-1 18-2 27-2 6 0 11 0 17 1v-218c0-17 14-30 30-30h348c17 0 31 13 31 30v227c0 4-1 7-2 10 32 15 59 39 77 67 32-52 95-87 167-87 6 0 11 0 16 1v-399z m-623 195v212c45 13 83 42 106 78 32-52 94-87 167-87 17 0 33 2 48 6v-209h-321z m607 247c-80 0-145 54-145 119 0 13-10 22-22 22s-22-9-22-22c0-65-65-119-145-119-80 0-145 54-145 119 0 13-10 22-22 22s-22-9-22-22c0-65-65-119-145-119-80 0-144 52-145 117l143 170h189l-28-66c-4-11 1-24 12-28 3-2 6-2 8-2 9 0 17 5 21 13l33 80c0 1 0 2 0 3h214l26-82c3-9 11-15 21-15 2 0 4 0 6 1 12 4 18 16 14 28l-21 68h178l142-168c0-66-65-119-145-119z" horiz-adv-x="1085" />
<glyph glyph-name="table" unicode="&#xe817;" d="m1105 850h-1000c-58 0-105-47-105-105v-790c0-58 47-105 105-105h1000c58 0 106 47 106 105v790c0 58-48 105-106 105z m-684-421v211h342v-211h-342z m342-53v-210h-342v210h342z m-710 264h315v-211h-315v211z m0-264h315v-210h-315v210z m1105-421c0-29-24-52-53-52h-1000c-29 0-52 23-52 52v158h315v-210h53v210h342v-210h53v210h342v-158z m0 211h-342v210h342v-210z m0 263h-342v211h342v-211z" horiz-adv-x="1211" />
<glyph glyph-name="tablet" unicode="&#xe818;" d="m1369 799h-1324c-25 0-45-20-45-45v-808c0-25 20-45 45-45h1324c25 0 45 20 45 45v808c0 25-20 45-45 45z m-684-45c6 0 11-5 11-11 0-6-5-11-11-11-6 0-11 5-11 11 0 6 5 11 11 11z m33-831h-44v45h44l0-45 0 0z m607 68h-1235v718h1235v-718h0z m-734 386c35-13 53-50 53-50 46 117 220 135 220 135-23-6-38-70-38-70-5-26-27-72-27-72-55-92-132-82-132-82-133 0-116 175-116 175 0-14 40-36 40-36z m-18-34c0 0 68-61 73-88 0 0 71 127 166 160 0 0-115-29-166-134 0 0-31 45-73 62z" horiz-adv-x="1414" />
<glyph glyph-name="gplus" unicode="&#xe819;" d="m0 57q0-39 17-68 30-55 105-82 63-26 136-26t133 20 100 52 60 74 22 87q0 63-34 108-26 36-69 68-15 11-32 28-34 28-34 55 0 32 45 73 15 13 37 36 19 21 32 54t12 72q0 51-22 96t-62 70h76l76 44h-246q-53 0-106-11-78-17-131-80t-53-141q0-82 59-138t145-55q8 0 39 3-2-6-9-24-4-11-4-25 0-38 36-84-37 0-84-7-110-18-169-60-34-25-55-64t-20-75z m104 26q0 34 16 61 27 47 94 68 58 18 120 18 9 0 28-2 1 0 16-11t20-13q14-9 36-27 1-2 9-9t13-12 8-10q2-2 3-5t4-6 5-7q6-9 10-19 7-24 7-43 0-35-15-61t-42-42q-50-30-120-30-76 0-139 35-33 17-53 47t-20 68z m61 563q0 57 30 94t81 38q36 0 66-22t48-60q36-74 36-145 0-59-26-92t-77-32q-28 0-55 14-45 26-76 91-27 57-27 114z m412-43h144v-145h72v145h144v72h-144v143h-72v-143h-144v-72z" horiz-adv-x="937.5" />
<glyph glyph-name="twitter" unicode="&#xe81a;" d="m920 636q-36-54-94-98l0-24q0-130-60-250t-186-203-290-83q-160 0-290 84 14-2 46-2 132 0 234 80-62 2-110 38t-66 94q10-4 34-4 26 0 50 6-66 14-108 66t-42 120l0 2q36-20 84-24-84 58-84 158 0 48 26 94 154-188 390-196-6 18-6 42 0 78 55 133t135 55q82 0 136-58 60 12 120 44-20-66-82-104 56 8 108 30z" horiz-adv-x="920" />
<glyph glyph-name="pin" unicode="&#xe81b;" d="m0 473q0 70 27 134 25 61 74 111 47 47 110 73 63 27 134 27 72 0 135-27 62-26 110-73 48-49 74-111 27-64 27-134t-27-134q-18-40-36-65l-229-347q-22-35-53-35t-55 35l-228 347q-22 31-36 65-27 64-27 134z m217 0q0-53 37-91 38-38 91-38 54 0 91 38 38 37 38 91 0 53-38 91-37 38-91 38-53 0-91-38-37-38-37-91z" horiz-adv-x="691.4" />
<glyph glyph-name="pinterest" unicode="&#xe81c;" d="m320 190q-26-130-58-211t-96-129q-6 74-7 120t11 110 22 104 26 99 24 99q-24 52-19 116t48 106 99 20q40-16 44-59t-13-95-32-103-4-90 63-49q68-14 121 38t74 131 11 163-54 128q-62 64-151 70t-163-33-120-117-32-170q4-22 22-52t21-47-17-67q-146 34-140 230 4 138 105 234t233 112q164 18 290-57t144-219q26-176-66-317t-252-129q-22 2-42 9t-30 13-31 21-31 21z" horiz-adv-x="778" />
<glyph glyph-name="youtube-play" unicode="&#xe81d;" d="m714 350q0 21-16 30l-286 179q-17 11-36 1-19-10-19-31v-358q0-21 19-31 9-4 17-4 11 0 19 5l286 179q16 9 16 30z m286 0q0-54-1-84t-4-76-13-82q-9-41-38-69t-70-32q-123-14-374-14t-374 14q-40 4-70 32t-39 69q-7 36-12 82t-4 76-1 84 1 84 4 76 13 82q9 41 38 69t70 32q123 14 374 14t374-14q40-4 70-32t39-69q8-36 12-82t4-76 1-84z" horiz-adv-x="1000" />
<glyph glyph-name="linkedin" unicode="&#xe81e;" d="m204 698q0-40-29-68t-75-28q-44 0-72 28t-28 68q0 42 28 69t74 27 73-27 29-69z m-198-790l0 618 192 0 0-618-192 0z m306 420q0 86-4 198l166 0 10-86 4 0q60 100 190 100 100 0 161-67t61-199l0-366-192 0 0 342q0 134-98 134-70 0-98-72-6-12-6-48l0-356-194 0 0 420z" horiz-adv-x="900" />
<glyph glyph-name="letter" unicode="&#xe81f;" d="m500 850l-500-312v-688h1000v688l-500 312z m438-870l-225 295 225 170v-465z m-438 808l425-274-439-333-411 333 425 274z m-437-346l218-176-218-286v462z m268-217l136-109 14-14 2 1 1-1 11 11 164 123 247-324h-812l237 313z" horiz-adv-x="1000" />
<glyph glyph-name="instagram" unicode="&#xe820;" d="m690 350q0 26-6 50l176 0 0-344q0-56-39-96t-95-40l-592 0q-56 0-95 40t-39 96l0 344 174 0q-4-32-4-50 0-106 76-183t184-77q106 0 183 77t77 183z m36 430q56 0 95-39t39-95l0-146-218 0q-78 110-212 110-138 0-212-110l-218 0 0 146q0 56 39 95t95 39l592 0z m64-166l0 72q0 24-24 24l-72 0q-24 0-24-24l0-72q0-8 7-16t17-8l72 0q24 0 24 24z m-200-264q0-66-47-113t-113-47-113 47-47 113q0 68 47 114t113 46 113-46 47-114z" horiz-adv-x="860" />
<glyph glyph-name="app-store" unicode="&#xe821;" d="m110 826c-47 0-86-39-86-86l0-780c0-47 39-86 86-86l2976 0c46 0 85 39 85 86l0 780c0 47-39 86-85 86l-2976 0z m2976-976l-2976 0c-61 0-110 49-110 110l0 780c0 61 49 110 110 110l2976 0c61 0 109-49 109-110l0-780c0-61-48-110-109-110m-2498 822c9-63-49-144-120-141-9 83 66 139 120 141m12-131c71 0 114-66 114-66 0 0-68-37-68-117 0-96 86-122 86-122 0 0-69-159-144-159-42 0-47 25-103 25-48 0-65-25-102-25-71 0-163 154-163 281 0 131 92 183 151 183 51 0 73-30 115-30 36-2 63 30 114 30m388-13l22 0c46 0 70 25 70 71 0 39-22 64-65 64-10 0-20 0-25-3l0-132-2 0z m-20 144c13 3 30 3 44 3 30 0 52-8 66-20 15-12 22-31 22-58 0-27-7-49-24-64-15-14-42-24-74-24-14 0-26 0-39 3l0 161 5 0 0-1z m161-44l22 0 0-117-22 0 0 117z m25 34c0-7-5-12-15-12-7 0-12 5-12 12 0 8 5 13 12 13 10 0 15-5 15-13m29-129c7-5 17-7 29-7 15 0 22 7 22 17 0 10-5 14-22 22-22 7-31 19-31 34 0 19 14 34 41 34 13 0 22-2 30-7l-5-15c-5 3-12 8-25 8-12 0-19-8-19-17 0-10 7-15 22-20 19-7 32-17 32-36 0-20-18-34-44-34-13 0-25 2-35 7l5 14z m119 24l0-9c5-15 18-25 32-25 22 0 36 20 36 47 0 24-12 44-34 44-14 0-29-10-31-27 0-3-3-5-3-10l0-20 0 0z m-22 32l0 39 20 0 0-19c10 15 22 22 41 22 30 0 49-25 49-61 0-42-27-64-53-64-15 0-30 8-37 20l0-64-19 0 0 127-1 0z m157-19c0-27 14-47 36-47 19 0 37 20 37 47 0 19-10 46-35 46-29 0-38-24-38-46m92 0c0-44-29-64-58-64-32 0-56 25-56 61 0 39 26 64 58 64 34 0 56-25 56-61m27 26l0 32 19 0 0-19c5 12 20 22 39 22 18 0 42-10 42-52l0-70-22 0 0 68c0 19-7 34-27 34-14 0-24-9-29-22 0-2-3-7-3-9l0-71-22 0 0 88 3 0 0-1z m137 32l22 0 0-117-22 0 0 117z m41 51l-29-34-15 0 22 34 22 0z m25-51l22-65c4-10 7-20 9-30 3 10 5 20 10 30l22 65 22 0-47-117-19 0-44 117 25 0z m180-46c0 14-5 34-29 34-22 0-32-19-32-34l61 0z m-63-17c0-30 19-42 41-42 15 0 25 3 32 5l3-15c-8-2-20-7-39-7-37 0-59 25-59 58 0 37 22 64 56 64 39 0 49-34 49-56l0-10-83 0 0 3z m112 120l22 0 0-174-22 0 0 174z m109-89l0 32 20 0 0-19c5 12 19 22 39 22 17 0 42-10 42-52l0-70-22 0 0 68c0 19-8 34-27 34-15 0-25-9-30-22 0-2-2-7-2-9l0-71-22 0 0 88 2 0 0-1z m196-26c-25 0-49-3-49-27 0-15 10-20 19-20 15 0 25 10 30 20 0 2 2 5 2 7l0 20-2 0z m5-59l-3 15c-7-10-19-17-36-17-25 0-37 17-37 34 0 29 25 44 71 44l0 2c0 10-3 27-27 27-10 0-22-2-32-10l-5 15c10 7 25 10 40 10 36 0 43-25 43-49l0-44c0-10 0-19 3-29l-17 0 0 2 0 0z m-1191-290l-24 73c-5 17-10 39-15 56-5-17-10-36-14-56l-22-73 75 0z m-85-41l-25-83-56 0 96 295 68 0 95-295-58 0-27 83-93 0z m268 4c0-4 0-9 3-14 5-22 24-37 46-37 34 0 54 30 54 71 0 36-20 68-54 68-22 0-44-17-49-39-2-4-2-9-2-14l0-34 2 0 0-1z m-53 54c0 29 0 51-3 71l46 0 3-35c15 25 42 37 73 37 49 0 91-42 91-110 0-78-49-114-98-114-27 0-49 12-61 29l0-110-53 0 0 232 2 0z m319-54c0-4 0-9 3-14 4-22 24-37 46-37 34 0 54 30 54 71 0 36-20 68-54 68-22 0-44-17-49-39-2-4-2-9-2-14l0-34 2 0 0-1z m-54 54c0 29 0 51-2 71l46 0 3-35c14 25 42 37 73 37 49 0 91-42 91-110 0-78-49-114-98-114-27 0-49 12-61 29l0-110-53 0 0 232 1 0z m349-83c17-10 44-19 71-19 34 0 54 17 54 41 0 22-15 37-54 49-49 17-80 44-80 85 0 49 41 86 104 86 32 0 57-7 71-15l-12-43c-10 4-32 14-59 14-34 0-48-19-48-36 0-22 17-35 56-49 51-19 75-47 75-88 0-46-36-88-112-88-32 0-63 10-80 20l14 43z m293 215l0-61 51 0 0-42-51 0 0-95c0-27 7-39 27-39 9 0 17 2 22 2l0-41c-8-3-22-5-39-5-20 0-37 7-47 17-12 12-17 32-17 58l0 100-32 0 0 42 32 0 0 49 54 15z m127-169c0-41 19-73 53-73 32 0 52 30 52 73 0 35-15 71-52 71-38 3-53-34-53-71m161 3c0-78-56-115-110-115-61 0-107 42-107 110 0 71 46 112 109 112 66 3 108-41 108-107m44 36c0 30 0 49-3 69l47 0 2-42 3 0c9 30 36 47 58 47 5 0 8 0 12-3l0-51c-4 0-9 2-14 2-27 0-44-17-49-41 0-5-2-10-2-17l0-110-54 0 0 146 0 0z m290-14c0 19-7 51-44 51-34 0-46-29-49-51l93 0z m-95-39c2-39 32-57 66-57 24 0 44 3 58 10l8-36c-20-8-44-13-76-13-68 0-110 42-110 108 0 58 37 114 105 114 69 0 93-56 93-104 0-10 0-18-3-22l-141 0z" horiz-adv-x="3195" />
<glyph glyph-name="play" unicode="&#xe822;" d="m500 820c-259 0-470-211-470-470 0-259 211-470 470-470 259 0 470 211 470 470 0 259-211 470-470 470m0-970c-276 0-500 224-500 500 0 276 224 500 500 500 276 0 500-224 500-500 0-276-224-500-500-500m142 485c0 10-15 23-15 23l-134 134c0 0-13 15-23 15-12 0-22-10-22-23l0-7 0-284 0-7c0-12 10-23 22-23 10 0 23 15 23 15l134 135c0 0 15 12 15 22" horiz-adv-x="1000" />
<glyph glyph-name="contact-phone" unicode="&#xe823;" d="m855 833c-40 28-83 17-101-8-11-16-122-183-134-203-5-10-8-21-8-32 0-15 5-33 12-48 8-16 36-64 51-89-15-21-54-71-132-149-77-77-127-116-149-130-23 14-73 41-89 50-30 16-61 17-81 5-19-13-186-124-202-135-16-11-24-30-24-51 0-18 5-35 16-49 2-2 107-149 166-147 172 8 374 174 512 311s303 337 310 509v2c0 59-146 164-147 164z m-207-631c-183-181-347-285-465-291-22 8-78 66-119 119-3 5-4 9-4 14 0 2 0 2 0 3 25 17 169 111 195 129 3 0 10-2 20-7 11-6 43-23 88-48l35-21 32 24c24 17 77 58 157 138 80 79 120 133 138 156l23 33-20 34c-19 33-43 74-49 86-6 11-6 18-6 21 0 0 0 0 0 1 16 22 113 169 130 194 3 0 8 0 14-4 55-39 113-96 120-118-4-117-108-281-289-463z" horiz-adv-x="1002" />
<glyph glyph-name="document" unicode="&#xe824;" d="m594 163l-375 0c-17 0-31-14-31-32 0-17 14-31 31-31l375 0c17 0 31 14 31 31 0 18-14 32-31 32m156-219c0-18-14-32-31-32l-625 0c-17 0-31 14-31 32l0 812c0 18 14 32 31 32l406 0 0-250 250 0 0-594z m-187 829l173-173-173 0 0 173z m249-173l-249 250 0 0-532 0c-17 0-31-14-31-31l0-938c0-17 14-31 31-31l750 0c18 0 32 14 32 31l0 719-1 0z m-624-281c0-17 14-31 31-31l375 0c17 0 31 14 31 31 0 17-14 31-31 31l-375 0c-17 0-31-14-31-31" horiz-adv-x="813" />
<glyph glyph-name="help" unicode="&#xe825;" d="m741 285c5 20 8 41 8 63 0 21-3 42-8 62l191 0c3-20 4-41 4-62 0-22-1-43-4-63l-191 0z m-118-353l0 202c37 22 71 51 93 89l202 0c-42-140-155-249-295-291m-63-14c-20-3-41-4-62-4-22 0-43 1-63 4l0 191c20-5 41-8 63-8 21 0 42 3 62 8l0-191z m-187 14c-140 42-249 151-291 291l202 0c22-38 51-67 89-89l0-202z m-309 416c0 21 2 42 4 62l191 0c-5-20-8-41-8-62 0-22 3-43 8-63l-191 0c-2 20-4 41-4 63m309 420l0-202c-38-22-67-56-89-93l-202 0c42 140 151 253 291 295m62 14c20 3 41 4 63 4 21 0 42-1 62-4l0-191c-20 5-41 8-62 8-22 0-43-3-63-8l0 191z m252-432c0-103-84-187-187-187-103 0-187 84-187 187 0 103 84 187 187 187 103 0 187-84 187-187m-64 418c140-42 253-155 295-295l-202 0c-22 37-56 71-93 93l0 202z m-123 80c-275 0-498-223-498-498 0-275 223-498 498-498 275 0 498 223 498 498 0 275-223 498-498 498" horiz-adv-x="1000" />
<glyph glyph-name="divertimos" unicode="&#xe826;" d="m812 537c-12 0-24 2-35 5l66 89 0 3c19 6 32 23 32 44 0 20-13 37-32 44l0 3-139 0c22 37 62 62 108 62 69 0 125-56 125-125 0-69-56-125-125-125m-375-343l-343 468 135 0 205-305 54 31-184 274 477 0z m375 656c-81 0-151-53-176-125l-374 0-84 125-53-32 63-93-157 0 0-3c-18-7-31-24-31-44 0-21 13-38 31-44l0-3 375-500 0 0 0-219-125 0c-17 0-31-14-31-31 0-17 14-31 31-31l313 0c17 0 31 14 31 31 0 17-14 31-31 31l-125 0 0 219 269 359c23-10 48-15 74-15 104 0 188 84 188 187 0 104-84 188-188 188" horiz-adv-x="1000" />
<glyph glyph-name="aprender" unicode="&#xe827;" d="m181 69c52 3 84 20 97 51 6 13 6 27 4 40 12-6 28-12 43-12 3 0 6 0 9 1 16 2 30 11 39 26 5 7 3 16-4 20-7 5-16 3-20-4-5-8-11-12-19-13-19-3-44 13-52 20-2 2-5 3-8 3-6 11-12 20-17 26-59 65-61 119-61 120 0 8-7 13-15 14-8 0-15-7-15-15 0-2 2-64 69-139 12-14 31-50 20-76-10-24-44-31-71-32-8-1-15-8-14-16 0-7 7-14 14-14l1 0z m-4 311c0 0 20 3 41-46 1-4 15-35 43-43 4-1 8-2 13-2 10 0 21 3 34 11 7 5 8 14 4 21-5 7-14 8-21 4-8-6-15-8-21-6-13 4-22 20-25 26-31 75-72 65-76 63-8-2-12-11-10-19 3-7 11-12 18-9m140 84c-3-7 0-16 8-19l5-1c6 0 11 4 14 9 42 102 5 245 4 251-2 8-10 13-18 11-8-2-13-10-11-18 1-2 36-139-2-233m-15-386c-8 2-16-4-17-12-1-8 4-15 12-17 1 0 56-9 70-64 2-7 8-11 14-11l4 1c8 2 13 10 11 18-20 73-91 85-94 85m25-129c-37-9-96 62-124 109-4 7-13 9-20 5-7-4-9-13-5-20 8-14 77-124 143-124 4 0 8 0 12 1 8 2 13 10 12 17-2 8-10 13-18 12m-153 185c7 0 13 6 14 13 1 8-4 15-12 17-32 4-49 61-52 84 6 103-30 141-32 143-6 6-15 6-20 0-6-6-6-15-1-21 0 0 29-32 23-121l0-3c1-5 16-103 78-112l2 0z m64 263c-3-8 1-16 8-20l6-1c6 0 11 3 13 9 16 34 0 95-2 102l-2 3c-38 65 14 131 16 133 3 4 4 8 3 13 5-6 10-12 16-18 3-2 7-4 10-4 4 0 8 2 11 5 6 6 5 15-1 21-26 25-39 48-36 67 3 24 29 38 30 38 7 4 10 13 6 20-3 7-12 10-20 7-1-1-40-21-45-60-3-22 4-44 21-66-6 2-13 1-18-4-3-3-66-83-19-165 4-16 12-60 3-80m146 4c-5-18-46-19-65-16-8 1-16-5-17-13-1-8 5-15 13-16 2-1 11-2 23-2 26 0 65 6 75 40 2 8-3 16-11 18-8 2-16-3-18-11m347-366c-40-30-77-73-111-128-9-7-52-37-94-25-32 9-56 40-74 92l0 790c12 19 43 56 78 57l1 0c26 0 52-21 78-60 4-7 13-9 20-5 5 4 8 10 6 16 20-10 43-24 56-47 13-22 14-48 5-78-3-8 1-16 9-18l4-1c7 0 12 4 14 10 3 8 4 15 6 22 21-20 54-70 11-179-3-7 1-16 8-19l6-1c6 0 11 4 14 9 7 20 13 39 16 55 19-17 51-65 24-186-2-7 3-15 11-17l3 0 7 1c8-24 16-59 7-93-8-26-25-46-52-61-7-4-9-13-6-20 3-5 8-8 13-8l8 2c5 3 9 6 14 10-5-29-22-74-82-118m-313-61c-18-52-43-83-74-92-42-12-85 18-95 25-33 55-71 98-111 128-59 44-77 90-82 118 5-4 10-7 15-10l7-2c5 0 10 3 13 8 4 7 2 16-6 20-72 40-59 114-44 155l7-2 3 0c8 2 13 10 11 18-28 120 4 168 23 185 4-16 9-34 17-54 2-6 8-10 14-10l5 1c8 3 11 12 8 19-43 109-10 159 12 179 1-7 3-14 5-22 2-6 8-10 14-10l4 1c8 2 12 11 10 18-10 30-8 56 4 78 13 23 36 38 56 47-1-6 1-12 7-16 6-4 16-2 20 5 25 40 51 60 78 60l0 0c39-1 70-44 79-56l0-791z m425 391c22 136-34 181-54 193 8 89-42 126-58 136-2 17-6 32-14 46-32 54-102 71-112 74-23 24-48 36-74 36l-1 0c-45-1-79-38-95-59-16 21-51 58-95 59l-1 0c-26 0-51-12-74-36-10-3-81-20-112-74-8-14-13-29-14-46-16-10-67-47-59-136-19-12-75-57-53-193-6-10-40-77-22-142 5-15 12-29 21-41-2-17-4-97 94-171 38-28 74-69 106-122l3-4c2-1 44-35 94-35 9 0 19 1 29 4 34 10 62 38 83 84 20-46 48-74 83-84 9-3 19-4 28-4 51 0 92 34 94 35l4 4c32 53 67 94 105 122 98 74 96 154 94 171 10 12 17 26 21 41 18 64-16 132-21 142m-283 380c0 0 26-13 30-38 3-19-10-42-37-67-6-6-6-15-1-21 3-3 7-5 11-5 4 0 7 2 10 4 7 6 12 12 17 18-1-5 0-9 3-13 0 0 54-68 15-133l-1-3c-2-7-18-68-3-102 3-6 8-9 14-9l6 1c7 4 10 12 7 20-8 18-2 58 4 80 47 82-17 162-20 165-4 5-11 6-17 4 17 22 24 44 21 66-6 39-44 59-46 60-7 3-16 0-20-7-3-7 0-16 7-20m130-646c-27 1-61 8-71 32-11 26 7 62 20 76 66 75 68 137 68 139 0 8-6 15-14 15-8 1-15-6-15-14 0-1-3-55-61-120-5-6-11-15-17-26-3 0-6-1-9-3-8-7-32-23-51-20-8 1-14 5-19 13-4 7-13 9-20 4-7-4-9-13-5-20 10-15 23-24 39-26 3-1 6-1 9-1 16 0 31 6 43 12-2-13-1-27 4-40 13-31 46-48 98-50l0 0c8 0 14 6 15 14 0 8-6 15-14 15m-90 220c-6-2-13 0-22 5-6 5-15 3-20-3-5-7-3-16 4-21 12-8 24-11 33-11 5 0 10 1 14 2 28 8 41 39 43 43 20 47 39 46 40 46 8-2 15 2 18 9 3 8-2 16-9 19-5 2-45 12-76-63-3-6-12-22-25-26m-61 125l6 1c8 3 11 12 8 19-39 93-3 231-3 233 2 8-2 16-10 18-8 2-16-3-18-11-2-6-39-149 4-251 2-6 8-9 13-9m33-395c8 2 14 9 13 17-2 8-10 13-17 12-3 0-75-12-94-86-2-7 3-15 10-18l4 0c7 0 13 4 14 11 15 54 68 64 70 64m115 14c-7 4-16 2-21-5-28-47-86-118-124-109-7 1-15-4-17-12-2-7 3-15 11-17 4-1 8-1 12-1 67 0 136 110 144 124 4 7 2 16-5 20m111 307c6 6 6 15 0 21-5 6-15 6-20 0-2-2-39-40-32-143-4-22-20-80-52-84-8-2-14-9-13-17 1-7 8-13 15-13l2 0c61 9 77 107 77 112l0 3c-6 88 23 120 23 121m-243-14c8 1 14 8 13 16-2 8-9 14-17 13-13-2-60-4-66 16-2 8-10 13-18 11-8-2-12-10-10-18 9-34 49-40 75-40 11 0 20 1 23 2" horiz-adv-x="869" />
<glyph glyph-name="crescer" unicode="&#xe828;" d="m817 18c-26 21-55 40-86 55 41 77 65 165 68 257l161 0c-6-123-59-233-143-312m-776 312l160 0c3-90 26-176 65-251-32-16-62-34-90-55-79 79-130 187-135 306m151 361c25-21 53-40 82-56-44-79-70-170-73-265l-160 0c5 127 62 241 151 321m328-321l0 200c2 0 5 0 7 0 60 0 118 10 174 29 35-69 55-147 58-229z m0-241l0 201 239 0c-3-86-26-168-64-240-55 23-114 36-175 39m191-90c27-14 52-30 76-48-59-47-129-80-206-94 52 39 95 87 130 142m-191-135l0 185c54-3 106-15 154-34-40-62-92-114-154-151m-101-7c-80 15-153 49-213 99 25 19 52 35 80 48 35-57 80-107 133-147m61 193l0-186c-63 38-116 92-157 155 50 19 103 29 157 31m0 240l0-200c-61-2-121-14-177-36-37 71-59 152-62 236z m0 242l0-202-239 0c3 89 27 174 68 247 54-24 111-40 171-45m-186 97c-25 14-49 30-71 48 57 43 123 73 196 86-49-37-91-82-125-134m186 127l0-184c-52 5-103 19-150 40 39 59 90 108 150 144m200-161c-48-16-100-25-153-25-2 0-5 0-7 0l0 186c65-39 120-95 160-161m-99 168c84-15 160-53 222-107-27-18-55-34-84-47-36 60-83 113-138 154m218-433c-3 87-24 170-61 244 33 14 65 33 94 54 75-78 123-183 128-298z m201-20l0 0c0 135-53 257-140 347 0 5-1 10-4 14-5 5-11 8-18 7-89 82-207 132-337 132 0 0 0 0 0 0 0 0-1 0-1 0 0 0-1 0-1 0 0 0 0 0 0 0-275-1-499-225-499-500 0-276 224-500 500-500l0 0 0 0 0 0 0 0 0 0 0 0c0 0 0 0 0 0 0 0 0 0 0 0 0 0 0 0 0 0 124 0 238 46 326 121 3 1 7 3 9 6 1 1 2 3 3 5 100 91 162 223 162 368z" horiz-adv-x="1000" />
<glyph glyph-name="cuidamos" unicode="&#xe829;" d="m285 804c-131 0-238-118-238-263 0-282 362-636 500-636 126 0 472 361 472 636 0 145-107 263-238 263-102 0-193-72-226-178-3-10-12-17-22-17-10 0-19 7-22 17-33 106-124 178-226 178m262-945c-155 0-547 371-547 682 0 170 128 309 285 309 104 0 198-61 248-157 50 96 144 157 248 157 157 0 285-139 285-309 0-293-356-682-519-682" horiz-adv-x="1070" />
<glyph glyph-name="excelencia" unicode="&#xe82a;" d="m960 490c0-46-34-80-80-80l-60 0 0 40 0 260 140 0z m-480-300c-136 0-260 124-260 260l0 276c0 1 0 3 0 4 0 1 0 1 0 2l0 78 560 0 0-80 0-280c0-143-135-260-300-260m80-180l-140 0 0 140 140 0z m138-120l-436 0c10 45 51 80 98 80l40 0 180 0 20 0c47 0 88-35 98-80m-518 520l-60 0c-46 0-80 34-80 80l0 220 140 0 0-260z m800 340l-160 0 0 80c0 11-9 20-20 20l-600 0c-11 0-20-9-20-20l0-80-160 0c-11 0-20-9-20-20l0-240c0-67 53-120 120-120l73 0c27-90 99-166 187-200l0-160-20 0c-76 0-140-64-140-140 0-11 9-20 20-20l480 0c0 0 0 0 0 0 11 0 20 9 20 20 0 1 0 3 0 4-2 74-66 136-140 136l0 160c101 33 178 108 207 200l73 0c67 0 120 53 120 120l0 240c0 11-9 20-20 20" horiz-adv-x="1000" />
<glyph glyph-name="ispirador" unicode="&#xe82b;" d="m1064 243c0-64-56-116-124-116l-110 0 0 425 234 0z m-277-260c0-50-40-90-89-90l-566 0c-49 0-89 40-89 90l0 790c0 19 15 35 34 35l676 0c19 0 34-16 34-35l0-212 0-443z m285 612l-242 0 0 178c0 43-35 77-77 77l-676 0c-43 0-77-34-77-77l0-790c0-74 59-133 132-133l566 0c73 0 132 59 132 133l0 101 110 0c92 0 166 71 166 159l0 318c0 19-15 34-34 34" horiz-adv-x="1106" />
<glyph glyph-name="surpreendemos" unicode="&#xe82c;" d="m1128-95l-241 418 101 175 342-593z m-1054 0l275 477 95-164c5-9 14-14 24-14 9 0 18 5 23 14l99 171 32-54c9-17 37-17 46 0l75 129 323-559z m496 859l142-246-67-116-32 55c-9 17-37 17-46 0l-99-172-88 151z m830-872l-388 673c-10 17-38 17-47 0l-109-188-263 455c-10 17-37 17-47 0l-542-940c-5-9-5-19 0-27 4-9 13-14 23-14l1085 0c1 0 1 0 1 0 0 0 0 0 0 0l264 0c10 0 18 5 23 14 5 8 5 18 0 27" horiz-adv-x="1405" />
<glyph glyph-name="down" unicode="&#xe82d;" d="m63 570l370-356 372 356q22 26 48 0 26-22 0-48l-396-392q-22-22-48 0l-396 392q-26 26 0 48 24 24 50 0z" horiz-adv-x="866" />
<glyph glyph-name="facebook-blank" unicode="&#xe82e;" d="m535 843v-147h-87q-48 0-65-20t-17-60v-106h164l-22-165h-142v-424h-171v424h-142v165h142v122q0 104 58 161t155 57q82 0 127-7z" horiz-adv-x="571.4" />
<glyph glyph-name="download" unicode="&#xe82f;" d="m453 57c6-6 14-8 21-8 8 0 16 2 21 8l196 195c11 11 11 28 0 39-11 11-28 11-39 0l-152-151 0 685c0 14-11 25-25 25-14 0-25-11-25-25l0-687-153 153c-11 11-29 11-40 0-10-11-10-28 0-39l196-195z m420 643l-123 0 0-50 100 0c28 0 50-22 50-50l0-650c0-28-22-50-50-50l-750 0c-28 0-50 22-50 50l0 650c0 28 22 50 50 50l100 0 0 50-123 0c-43 0-77-35-77-79l0-692c0-44 34-79 77-79l796 0c43 0 77 35 77 79l0 692c0 44-34 79-77 79" horiz-adv-x="950" />
<glyph glyph-name="sendmail" unicode="&#xe830;" d="m0 850l0-45 0-1 0-922 0-1 0-31 49 0 0 0 1372 0 1 0 49 0 0 1000-1471 0z m110-59l1251 0-626-518-625 518z m902-367l400 331 0-804-400 473z m-953 331l400-331-400-473 0 804z m903-372l409-474-1271 0 409 474 218-181 8 11 9-11 218 181z" horiz-adv-x="1471" />
<glyph glyph-name="checked-slim" unicode="&#xe831;" d="m1281 828c-30 29-78 29-108 0l-793-793-249 249c-30 30-78 30-108 0-31-30-31-79 0-109l302-303c30-30 78-30 108 0l848 848c30 30 30 78 0 108" horiz-adv-x="1303" />
<glyph glyph-name="notafiscal" unicode="&#xe832;" d="m0-150l877 0 0 1000-877 0 0-1000z m61 939l755 0 0-878-755 0 0 878z m123-193l509 0 0 70-509 0 0-70z m377-185l132 0 0 62-132 0 0-62z m-377 0l291 0 0 62-291 0 0-62z m377-122l132 0 0 61-132 0 0-61z m-377 0l291 0 0 61-291 0 0-61z m377-123l132 0 0 61-132 0 0-61z m-377 0l291 0 0 61-291 0 0-61z m377-123l132 0 0 61-132 0 0-61z m-377 0l291 0 0 61-291 0 0-61z" horiz-adv-x="877" />
</font>
</defs>
</svg>
